# xmcd CD database file
#
# Track frame offsets:
#	150
#	18645
#	37410
#	57340
#	74707
#	96780
#	117522
#	132235
#	153060
#	170630
#	186020
#	200793
#	219100
#	242633
#	261678
#
# Disc length: 3770 seconds
#
# Revision: 0
# Processed by: cddbd v1.5.2PL0 Copyright (c) Steve Scherf et al.
# Submitted via: CDex 1.51
#
DISCID=ea0eb80f
DTITLE=秀蘭瑪雅 - 夢中情網
DYEAR=2006
DGENRE=Country
TTITLE0=可愛的馬
TTITLE1=思念伊
TTITLE2=夢中情網
TTITLE3=惜別夜港邊
TTITLE4=天光光
TTITLE5=再會無情人
TTITLE6=溫泉鄉的吉他
TTITLE7=雲相思
TTITLE8=望春
TTITLE9=湯島白梅
TTITLE10=詹雅雯-是你對不起我
TTITLE11=王瑞霞-你是阮心肝
TTITLE12=方怡萍-希望再相逢
TTITLE13=沈芳如-心情啥知影
TTITLE14=黃思婷-雙叉路口
EXTD=YEAR: 2006
EXTT0=
EXTT1=
EXTT2=
EXTT3=
EXTT4=
EXTT5=
EXTT6=
EXTT7=
EXTT8=
EXTT9=
EXTT10=
EXTT11=
EXTT12=
EXTT13=
EXTT14=
PLAYORDER=
